<svg xmlns="http://www.w3.org/2000/svg" viewBox="0 0 297.27 297.27" fill="#fff"><path d="M132.444 57.816c-8.284 0-15 6.716-15 15v140.717a83.19 83.19 0 0 0 30 0V72.816c0-8.284-6.715-15-15-15zM188.444 124.816c-8.284 0-15 6.716-15 15v64.215a82.289 82.289 0 0 0 17.341-13.246 82.355 82.355 0 0 0 12.659-16.301v-34.668c0-8.284-6.715-15-15-15zM76.444 99.816c-8.284 0-15 6.716-15 15v59.668a82.355 82.355 0 0 0 12.659 16.301 82.289 82.289 0 0 0 17.341 13.246v-89.215c0-8.284-6.715-15-15-15z"/><path d="m288.563 246.524-29.323-29.323-14.458-14.458c32.011-51.144 25.798-119.554-18.641-163.994-51.663-51.663-135.728-51.665-187.393 0-51.664 51.665-51.664 135.729 0 187.393 25.832 25.832 59.765 38.748 93.696 38.748 24.442 0 48.883-6.703 70.298-20.107L217.2 259.24l29.323 29.324c11.609 11.609 30.431 11.609 42.04 0 11.609-11.61 11.609-30.431 0-42.04zM59.961 204.928c-39.967-39.967-39.967-104.999 0-144.967 19.983-19.983 46.233-29.975 72.483-29.975s52.5 9.991 72.483 29.975c39.967 39.968 39.967 105 0 144.967s-104.999 39.967-144.966 0z"/></svg>